<mxfile host="Electron" modified="2024-03-23T06:12:42.439Z" agent="Mozilla/5.0 (Macintosh; Intel Mac OS X 10_15_7) AppleWebKit/537.36 (KHTML, like Gecko) draw.io/23.1.5 Chrome/120.0.6099.109 Electron/28.1.0 Safari/537.36" etag="px06ni-t4pCAab53_Vas" version="23.1.5" type="device">
  <diagram name="第 1 页" id="cTmBWzB4i62C-0hLC9Lw">
    <mxGraphModel dx="1025" dy="854" grid="0" gridSize="10" guides="1" tooltips="1" connect="1" arrows="1" fold="1" page="1" pageScale="1" pageWidth="583" pageHeight="690" math="0" shadow="0">
      <root>
        <mxCell id="0" />
        <mxCell id="1" parent="0" />
        <mxCell id="1qu8gLTCUTjECIXJqY8j-14" style="edgeStyle=orthogonalEdgeStyle;rounded=0;orthogonalLoop=1;jettySize=auto;html=1;entryX=0.5;entryY=0;entryDx=0;entryDy=0;" edge="1" parent="1" source="1qu8gLTCUTjECIXJqY8j-1" target="1qu8gLTCUTjECIXJqY8j-13">
          <mxGeometry relative="1" as="geometry" />
        </mxCell>
        <mxCell id="1qu8gLTCUTjECIXJqY8j-1" value="字段项" style="rounded=0;whiteSpace=wrap;html=1;fillColor=#dae8fc;strokeColor=#6c8ebf;fontSize=15;" vertex="1" parent="1">
          <mxGeometry x="17" y="70" width="143" height="60" as="geometry" />
        </mxCell>
        <mxCell id="1qu8gLTCUTjECIXJqY8j-2" value="字段项" style="rounded=0;whiteSpace=wrap;html=1;fillColor=#dae8fc;strokeColor=#6c8ebf;fontSize=15;" vertex="1" parent="1">
          <mxGeometry x="160" y="70" width="143" height="60" as="geometry" />
        </mxCell>
        <mxCell id="1qu8gLTCUTjECIXJqY8j-3" value="字段项" style="rounded=0;whiteSpace=wrap;html=1;fillColor=#dae8fc;strokeColor=#6c8ebf;fontSize=15;" vertex="1" parent="1">
          <mxGeometry x="303" y="70" width="143" height="60" as="geometry" />
        </mxCell>
        <mxCell id="1qu8gLTCUTjECIXJqY8j-4" value="..." style="text;html=1;align=center;verticalAlign=middle;resizable=0;points=[];autosize=1;strokeColor=none;fillColor=none;fontSize=15;" vertex="1" parent="1">
          <mxGeometry x="473" y="86" width="31" height="30" as="geometry" />
        </mxCell>
        <mxCell id="1qu8gLTCUTjECIXJqY8j-11" style="edgeStyle=orthogonalEdgeStyle;rounded=0;orthogonalLoop=1;jettySize=auto;html=1;entryX=0;entryY=0;entryDx=0;entryDy=0;" edge="1" parent="1" source="1qu8gLTCUTjECIXJqY8j-5" target="1qu8gLTCUTjECIXJqY8j-10">
          <mxGeometry relative="1" as="geometry" />
        </mxCell>
        <mxCell id="1qu8gLTCUTjECIXJqY8j-5" value="字段名称" style="rounded=0;whiteSpace=wrap;html=1;fillColor=#d5e8d4;strokeColor=#82b366;" vertex="1" parent="1">
          <mxGeometry x="42" y="279" width="84" height="60" as="geometry" />
        </mxCell>
        <mxCell id="1qu8gLTCUTjECIXJqY8j-6" value="字段类型" style="rounded=0;whiteSpace=wrap;html=1;fillColor=#bac8d3;strokeColor=#23445d;" vertex="1" parent="1">
          <mxGeometry x="126" y="279" width="84" height="60" as="geometry" />
        </mxCell>
        <mxCell id="1qu8gLTCUTjECIXJqY8j-7" value="字段值" style="rounded=0;whiteSpace=wrap;html=1;fillColor=#b1ddf0;strokeColor=#10739e;" vertex="1" parent="1">
          <mxGeometry x="210" y="279" width="84" height="60" as="geometry" />
        </mxCell>
        <mxCell id="1qu8gLTCUTjECIXJqY8j-9" value="字符长度" style="rounded=0;whiteSpace=wrap;html=1;fillColor=#e1d5e7;strokeColor=#9673a6;" vertex="1" parent="1">
          <mxGeometry x="50" y="411" width="34" height="60" as="geometry" />
        </mxCell>
        <mxCell id="1qu8gLTCUTjECIXJqY8j-10" value="字符内容" style="rounded=0;whiteSpace=wrap;html=1;fillColor=#f5f5f5;fontColor=#333333;strokeColor=#666666;" vertex="1" parent="1">
          <mxGeometry x="84" y="411" width="52" height="60" as="geometry" />
        </mxCell>
        <mxCell id="1qu8gLTCUTjECIXJqY8j-13" value="" style="rounded=1;whiteSpace=wrap;html=1;fillColor=none;dashed=1;" vertex="1" parent="1">
          <mxGeometry x="28" y="260" width="284" height="234" as="geometry" />
        </mxCell>
      </root>
    </mxGraphModel>
  </diagram>
</mxfile>
